{
  "accessors": [
    {
      "bufferView": 2,
      "componentType": 5126,
      "count": 65533,
      "max": [
        0.98117786645889282,
        1.0270715951919556,
        0.85563629865646362
      ],
      "min": [
        -1.0407609939575195,
        -1.0261846780776978,
        -1.039110541343689
      ],
      "type": "VEC3"
    },
    {
      "bufferView": 2,
      "byteOffset": 786396,
      "componentType": 5126,
      "count": 65533,
      "max": [
        0.999858558177948,
        0.9999091625213623,
        0.99994367361068726
      ],
      "min": [
        -0.99991822242736816,
        -0.9999433159828186,
        -0.99999672174453735
      ],
      "type": "VEC3"
    },
    {
      "bufferView": 3,
      "componentType": 5126,
      "count": 65533,
      "max": [
        0.9999585747718811,
        0.99996656179428101,
        0.99999850988388062,
        1
      ],
      "min": [
        -0.99999469518661499,
        -0.99997991323471069,
        -0.99990469217300415,
        -1
      ],
      "type": "VEC4"
    },
    {
      "bufferView": 3,
      "byteOffset": 1048528,
      "componentType": 5126,
      "count": 65533,
      "max": [
        1,
        1,
        1,
        1
      ],
      "min": [
        0.26274511218070984,
        0.094117648899555206,
        0.019607843831181526,
        1
      ],
      "type": "VEC4"
    },
    {
      "bufferView": 1,
      "componentType": 5126,
      "count": 65533,
      "max": [
        0.99737000465393066,
        0.99804002046585083
      ],
      "min": [
        0.0019499999471008778,
        0.0019499999471008778
      ],
      "type": "VEC2"
    },
    {
      "bufferView": 0,
      "componentType": 5125,
      "count": 312960,
      "max": [
        65532
      ],
      "min": [
        0
      ],
      "type": "SCALAR"
    },
    {
      "bufferView": 2,
      "byteOffset": 1572792,
      "componentType": 5126,
      "count": 65533,
      "max": [
        1.0291986465454102,
        1.032464861869812,
        1.0372387170791626
      ],
      "min": [
        -1.0082311630249023,
        -1.0297598838806152,
        -1.0079032182693481
      ],
      "type": "VEC3"
    },
    {
      "bufferView": 2,
      "byteOffset": 2359188,
      "componentType": 5126,
      "count": 65533,
      "max": [
        0.99999022483825684,
        0.99999457597732544,
        0.99995875358581543
      ],
      "min": [
        -0.99998843669891357,
        -0.99996709823608398,
        -0.99999457597732544
      ],
      "type": "VEC3"
    },
    {
      "bufferView": 3,
      "byteOffset": 2097056,
      "componentType": 5126,
      "count": 65533,
      "max": [
        0.9999890923500061,
        0.99997258186340332,
        0.99998748302459717,
        1
      ],
      "min": [
        -0.99999922513961792,
        -0.99997991323471069,
        -0.9999997615814209,
        -1
      ],
      "type": "VEC4"
    },
    {
      "bufferView": 3,
      "byteOffset": 3145584,
      "componentType": 5126,
      "count": 65533,
      "max": [
        1,
        1,
        1,
        1
      ],
      "min": [
        0.26274511218070984,
        0.094117648899555206,
        0.019607843831181526,
        1
      ],
      "type": "VEC4"
    },
    {
      "bufferView": 1,
      "byteOffset": 524264,
      "componentType": 5126,
      "count": 65533,
      "max": [
        0.99766999483108521,
        0.99787002801895142
      ],
      "min": [
        0.0019499999471008778,
        0.0019499999471008778
      ],
      "type": "VEC2"
    },
    {
      "bufferView": 0,
      "byteOffset": 1251840,
      "componentType": 5125,
      "count": 263406,
      "max": [
        65532
      ],
      "min": [
        0
      ],
      "type": "SCALAR"
    },
    {
      "bufferView": 2,
      "byteOffset": 3145584,
      "componentType": 5126,
      "count": 2484,
      "max": [
        0.91666090488433838,
        1.0121012926101685,
        0.89734238386154175
      ],
      "min": [
        -1.016453742980957,
        -0.99561458826065063,
        -0.83567941188812256
      ],
      "type": "VEC3"
    },
    {
      "bufferView": 2,
      "byteOffset": 3175392,
      "componentType": 5126,
      "count": 2484,
      "max": [
        0.99909478425979614,
        0.99970287084579468,
        0.99960881471633911
      ],
      "min": [
        -0.9997294545173645,
        -0.99991011619567871,
        -0.99919742345809937
      ],
      "type": "VEC3"
    },
    {
      "bufferView": 3,
      "byteOffset": 4194112,
      "componentType": 5126,
      "count": 2484,
      "max": [
        0.99962574243545532,
        0.99969875812530518,
        0.9998248815536499,
        1
      ],
      "min": [
        -0.99927616119384766,
        -0.9991576075553894,
        -0.99887311458587646,
        -1
      ],
      "type": "VEC4"
    },
    {
      "bufferView": 3,
      "byteOffset": 4233856,
      "componentType": 5126,
      "count": 2484,
      "max": [
        1,
        1,
        1,
        1
      ],
      "min": [
        0.26666668057441711,
        0.094117648899555206,
        0.019607843831181526,
        1
      ],
      "type": "VEC4"
    },
    {
      "bufferView": 1,
      "byteOffset": 1048528,
      "componentType": 5126,
      "count": 2484,
      "max": [
        0.99233001470565796,
        0.9872099757194519
      ],
      "min": [
        0.0036599999293684959,
        0.0041899997740983963
      ],
      "type": "VEC2"
    },
    {
      "bufferView": 0,
      "byteOffset": 2305464,
      "componentType": 5125,
      "count": 3153,
      "max": [
        2483
      ],
      "min": [
        0
      ],
      "type": "SCALAR"
    }
  ],
  "asset": {
    "extras": {
      "author": "Mn8 (https://sketchfab.com/mn8)",
      "license": "CC-BY-4.0 (http://creativecommons.org/licenses/by/4.0/)",
      "source": "https://sketchfab.com/3d-models/alien-virus-6b5742d756f442cfa0fb4cceecadd4d0",
      "title": "Alien Virus"
    },
    "generator": "Sketchfab-4.61.0",
    "version": "2.0"
  },
  "bufferViews": [
    {
      "buffer": 0,
      "byteLength": 2318076,
      "byteOffset": 0,
      "name": "floatBufferViews",
      "target": 34963
    },
    {
      "buffer": 0,
      "byteLength": 1068400,
      "byteOffset": 2318076,
      "byteStride": 8,
      "name": "floatBufferViews",
      "target": 34962
    },
    {
      "buffer": 0,
      "byteLength": 3205200,
      "byteOffset": 3386476,
      "byteStride": 12,
      "name": "floatBufferViews",
      "target": 34962
    },
    {
      "buffer": 0,
      "byteLength": 4273600,
      "byteOffset": 6591676,
      "byteStride": 16,
      "name": "floatBufferViews",
      "target": 34962
    }
  ],
  "buffers": [
    {
      "byteLength": 10865276,
      "uri": "scene.bin"
    }
  ],
  "materials": [
    {
      "doubleSided": true,
      "name": "defaultMat",
      "pbrMetallicRoughness": {
        "baseColorFactor": [
          0.48540884400000001,
          0.16256321500000001,
          0.16256321500000001,
          1
        ],
        "metallicFactor": 0,
        "roughnessFactor": 0.59999999999999998
      }
    }
  ],
  "meshes": [
    {
      "primitives": [
        {
          "attributes": {
            "COLOR_0": 3,
            "NORMAL": 1,
            "POSITION": 0,
            "TANGENT": 2,
            "TEXCOORD_0": 4
          },
          "indices": 5,
          "material": 0,
          "mode": 4
        }
      ]
    },
    {
      "primitives": [
        {
          "attributes": {
            "COLOR_0": 9,
            "NORMAL": 7,
            "POSITION": 6,
            "TANGENT": 8,
            "TEXCOORD_0": 10
          },
          "indices": 11,
          "material": 0,
          "mode": 4
        }
      ]
    },
    {
      "primitives": [
        {
          "attributes": {
            "COLOR_0": 15,
            "NORMAL": 13,
            "POSITION": 12,
            "TANGENT": 14,
            "TEXCOORD_0": 16
          },
          "indices": 17,
          "material": 0,
          "mode": 4
        }
      ]
    }
  ],
  "nodes": [
    {
      "children": [
        1
      ],
      "name": "RootNode (gltf orientation matrix)",
      "rotation": [
        -0.70710678118654746,
        -0,
        -0,
        0.70710678118654757
      ]
    },
    {
      "children": [
        2
      ],
      "name": "RootNode (model correction matrix)"
    },
    {
      "children": [
        3,
        4,
        5
      ],
      "name": "alien_virus2_decimated.OBJ.cleaner.materialmerger.gles"
    },
    {
      "mesh": 0,
      "name": ""
    },
    {
      "mesh": 1,
      "name": ""
    },
    {
      "mesh": 2,
      "name": ""
    }
  ],
  "scene": 0,
  "scenes": [
    {
      "name": "OSG_Scene",
      "nodes": [
        0
      ]
    }
  ]
}

